<svg xmlns="http://www.w3.org/2000/svg" viewBox="0 0 64 64">
  <defs>
    <linearGradient id="body" x1="0" y1="0" x2="1" y2="1">
      <stop offset="0" stop-color="#F2F2F2"/>
      <stop offset="1" stop-color="#DADADA"/>
    </linearGradient>
    <linearGradient id="flame" x1="0" y1="0" x2="0" y2="1">
      <stop offset="0" stop-color="#FFB100"/>
      <stop offset="1" stop-color="#FF4D00"/>
    </linearGradient>
  </defs>
  <path d="M20 40c8-18 16-22 24-24 4 8 0 16-8 24-8 8-16 12-24 8 4-8 8-16 8-8z" fill="url(#body)" stroke="#999" stroke-width="1"/>
  <circle cx="40" cy="24" r="4" fill="#2A6F97"/>
  <path d="M18 50c2-6 8-8 12-6" stroke="#999" stroke-width="2"/>
  <path d="M12 44c2-6 8-8 12-6" stroke="#999" stroke-width="2"/>
  <path d="M16 56c0-6 6-10 12-10" stroke="#999" stroke-width="2"/>
  <path d="M10 52c4 4 10 4 14 2" stroke="#999" stroke-width="2"/>
  <path d="M12 60c6-2 10-6 12-10" stroke="#999" stroke-width="2"/>
  <path d="M8 52c2 6 8 8 14 6" stroke="#999" stroke-width="2"/>
  <polygon points="12,60 20,52 16,48" fill="url(#flame)"/>
</svg>
